<?xml version="1.0" encoding="utf-8"?>
<!-- Generator: Adobe Illustrator 21.0.0, SVG Export Plug-In . SVG Version: 6.00 Build 0)  -->
<svg version="1.1" id="Layer_1" xmlns="http://www.w3.org/2000/svg" xmlns:xlink="http://www.w3.org/1999/xlink" x="0px" y="0px"
	 viewBox="0 0 93.6 20" style="enable-background:new 0 0 93.6 20;" xml:space="preserve">
<style type="text/css">
	.st0{fill:#FFFFFF;}
</style>
<path class="st0" d="M92.7,9.8c0,2.4-1.9,4.3-4.3,4.3s-4.3-1.9-4.3-4.3s1.9-4.3,4.3-4.3S92.7,7.4,92.7,9.8z M90.6,7.6h-4.3v1.5h4.3
	V7.6z M88.5,10.6l-0.7,0.8l1.6,1.4l-0.7-1.5l0.9-0.8l-1.9-0.9L88.5,10.6z M88.4,6.3c-1.9,0-3.5,1.5-3.5,3.5s1.5,3.5,3.5,3.5
	c1.9,0,3.5-1.5,3.5-3.5S90.3,6.3,88.4,6.3z"/>
<g>
	<path class="st0" d="M48.3,11.3c0,0.4,0.1,0.8,0.3,1.1c0.3,0.5,0.9,0.8,1.8,0.8c0.4,0,0.7-0.1,1-0.2c0.6-0.2,0.9-0.6,0.9-1.2
		c0-0.4-0.1-0.7-0.4-0.9c-0.3-0.2-0.7-0.3-1.2-0.5l-1-0.2c-0.7-0.2-1.1-0.3-1.4-0.5c-0.5-0.3-0.7-0.8-0.7-1.5c0-0.7,0.2-1.3,0.7-1.7
		c0.5-0.5,1.1-0.7,2-0.7c0.8,0,1.5,0.2,2,0.6c0.6,0.4,0.8,1,0.8,1.9h-1c-0.1-0.4-0.2-0.7-0.3-1c-0.3-0.4-0.8-0.6-1.6-0.6
		c-0.6,0-1,0.1-1.3,0.4c-0.3,0.3-0.4,0.6-0.4,0.9c0,0.4,0.2,0.7,0.5,0.8c0.2,0.1,0.7,0.3,1.4,0.4l1.1,0.3c0.5,0.1,0.9,0.3,1.2,0.5
		c0.5,0.4,0.7,0.9,0.7,1.6c0,0.9-0.3,1.5-0.9,1.9c-0.6,0.4-1.3,0.6-2.1,0.6c-0.9,0-1.7-0.2-2.2-0.7c-0.5-0.5-0.8-1.2-0.8-2H48.3z"/>
	<path class="st0" d="M56.8,6H58l2.8,7.8h-1.2l-0.8-2.3h-3.1l-0.8,2.3h-1.1L56.8,6z M58.5,10.6l-1.2-3.5l-1.3,3.5H58.5z"/>
	<path class="st0" d="M61.5,6H63l2.3,6.6L67.5,6H69v7.8h-1V9.2c0-0.2,0-0.4,0-0.8s0-0.8,0-1.2l-2.2,6.6h-1.1l-2.3-6.6v0.2
		c0,0.2,0,0.5,0,0.9c0,0.4,0,0.7,0,0.9v4.6h-1V6z"/>
	<path class="st0" d="M71.1,11.3c0,0.4,0.1,0.8,0.3,1.1c0.3,0.5,0.9,0.8,1.8,0.8c0.4,0,0.7-0.1,1-0.2c0.6-0.2,0.9-0.6,0.9-1.2
		c0-0.4-0.1-0.7-0.4-0.9c-0.3-0.2-0.7-0.3-1.2-0.5l-1-0.2c-0.7-0.2-1.1-0.3-1.4-0.5c-0.5-0.3-0.7-0.8-0.7-1.5c0-0.7,0.2-1.3,0.7-1.7
		c0.5-0.5,1.1-0.7,2-0.7c0.8,0,1.5,0.2,2,0.6c0.6,0.4,0.8,1,0.8,1.9h-1c-0.1-0.4-0.2-0.7-0.3-1c-0.3-0.4-0.8-0.6-1.6-0.6
		c-0.6,0-1,0.1-1.3,0.4c-0.3,0.3-0.4,0.6-0.4,0.9c0,0.4,0.2,0.7,0.5,0.8c0.2,0.1,0.7,0.3,1.4,0.4l1.1,0.3c0.5,0.1,0.9,0.3,1.2,0.5
		c0.5,0.4,0.7,0.9,0.7,1.6c0,0.9-0.3,1.5-0.9,1.9C74.7,13.9,74,14,73.1,14c-0.9,0-1.7-0.2-2.2-0.7c-0.5-0.5-0.8-1.2-0.8-2H71.1z"/>
	<path class="st0" d="M82.8,6.6c0.5,0.5,0.8,1.1,0.9,1.8h-1c-0.1-0.5-0.3-0.9-0.7-1.2c-0.3-0.3-0.8-0.4-1.4-0.4
		c-0.8,0-1.4,0.3-1.8,0.8C78.2,8,78,8.9,78,10c0,0.9,0.2,1.7,0.6,2.2c0.4,0.6,1,0.9,1.9,0.9c0.8,0,1.4-0.3,1.8-0.9
		c0.2-0.3,0.4-0.7,0.5-1.2h1c-0.1,0.8-0.4,1.5-0.9,2.1c-0.6,0.7-1.4,1-2.5,1c-0.9,0-1.7-0.3-2.3-0.8c-0.8-0.7-1.2-1.9-1.2-3.4
		c0-1.2,0.3-2.1,0.9-2.8c0.7-0.8,1.6-1.2,2.7-1.2C81.5,5.8,82.3,6,82.8,6.6z"/>
</g>
</svg>
