<?xml version="1.0" encoding="utf-8"?>
<!DOCTYPE svg PUBLIC "-//W3C//DTD SVG 1.1//EN" "http://www.w3.org/Graphics/SVG/1.1/DTD/svg11.dtd">
<svg version="1.1" id="Ebene_1" xmlns="http://www.w3.org/2000/svg" xmlns:xlink="http://www.w3.org/1999/xlink" x="0px" y="0px"
	 width="170px" height="110px" viewBox="0 0 170 110" enable-background="new 0 0 170 110" xml:space="preserve">
<path fill="#E6E6E5" d="M84.5,100.14c-18.56,0-33.65-15.22-33.65-33.93c0-18.71,15.1-33.93,33.65-33.93
	c18.56,0,33.65,15.22,33.65,33.93C118.15,84.91,103.06,100.14,84.5,100.14z M84.5,36.53c-16.22,0-29.42,13.31-29.42,29.67
	c0,16.36,13.2,29.67,29.42,29.67s29.42-13.31,29.42-29.67C113.92,49.84,100.72,36.53,84.5,36.53z"/>
<path fill="#FFEF7B" d="M84.58,107.39c-14.29,0-27.74-7.7-35.08-20.08l15.98-9.63c4.06,6.85,11.2,10.94,19.1,10.94
	c7.83,0,14.94-4.03,19.01-10.79l15.91,9.74C112.03,99.98,98.97,107.39,84.58,107.39z"/>
</svg>
