<?xml version="1.0" encoding="utf-8"?>
<!DOCTYPE svg PUBLIC "-//W3C//DTD SVG 1.1//EN" "http://www.w3.org/Graphics/SVG/1.1/DTD/svg11.dtd">
<svg version="1.1" id="Ebene_1" xmlns="http://www.w3.org/2000/svg" xmlns:xlink="http://www.w3.org/1999/xlink" x="0px" y="0px"
	 width="170px" height="110px" viewBox="0 0 170 110" enable-background="new 0 0 170 110" xml:space="preserve">
<circle fill="#FFEE7A" cx="103.5" cy="89.5" r="14.5"/>
<path fill="#E6E6E5" d="M64.5,79C70.29,79,75,83.71,75,89.5S70.29,100,64.5,100C58.71,100,54,95.29,54,89.5S58.71,79,64.5,79
	 M64.5,75C56.49,75,50,81.49,50,89.5c0,8.01,6.49,14.5,14.5,14.5c8.01,0,14.5-6.49,14.5-14.5C79,81.49,72.51,75,64.5,75L64.5,75z"/>
<path fill="#E6E6E5" d="M64.5,39C70.29,39,75,43.71,75,49.5C75,55.29,70.29,60,64.5,60C58.71,60,54,55.29,54,49.5
	C54,43.71,58.71,39,64.5,39 M64.5,35C56.49,35,50,41.49,50,49.5C50,57.51,56.49,64,64.5,64C72.51,64,79,57.51,79,49.5
	C79,41.49,72.51,35,64.5,35L64.5,35z"/>
<path fill="#E6E6E5" d="M103.5,39c5.79,0,10.5,4.71,10.5,10.5c0,5.79-4.71,10.5-10.5,10.5C97.71,60,93,55.29,93,49.5
	C93,43.71,97.71,39,103.5,39 M103.5,35C95.49,35,89,41.49,89,49.5c0,8.01,6.49,14.5,14.5,14.5c8.01,0,14.5-6.49,14.5-14.5
	C118,41.49,111.51,35,103.5,35L103.5,35z"/>
</svg>
